<svg id="visual" viewBox="0 0 900 600" width="900" height="600" xmlns="http://www.w3.org/2000/svg" xmlns:xlink="http://www.w3.org/1999/xlink" version="1.1"><rect x="0" y="0" width="900" height="600" fill="#001220"></rect><path d="M0 413L21.5 412.7C43 412.3 86 411.7 128.8 415.7C171.7 419.7 214.3 428.3 257.2 422.7C300 417 343 397 385.8 384C428.7 371 471.3 365 514.2 370.3C557 375.7 600 392.3 642.8 402.7C685.7 413 728.3 417 771.2 408.5C814 400 857 379 878.5 368.5L900 358L900 601L878.5 601C857 601 814 601 771.2 601C728.3 601 685.7 601 642.8 601C600 601 557 601 514.2 601C471.3 601 428.7 601 385.8 601C343 601 300 601 257.2 601C214.3 601 171.7 601 128.8 601C86 601 43 601 21.5 601L0 601Z" fill="#654286"></path><path d="M0 408L21.5 409C43 410 86 412 128.8 420C171.7 428 214.3 442 257.2 444C300 446 343 436 385.8 428.5C428.7 421 471.3 416 514.2 422.7C557 429.3 600 447.7 642.8 458.5C685.7 469.3 728.3 472.7 771.2 473.8C814 475 857 474 878.5 473.5L900 473L900 601L878.5 601C857 601 814 601 771.2 601C728.3 601 685.7 601 642.8 601C600 601 557 601 514.2 601C471.3 601 428.7 601 385.8 601C343 601 300 601 257.2 601C214.3 601 171.7 601 128.8 601C86 601 43 601 21.5 601L0 601Z" fill="#523173"></path><path d="M0 455L21.5 452.2C43 449.3 86 443.7 128.8 443C171.7 442.3 214.3 446.7 257.2 448.8C300 451 343 451 385.8 452.3C428.7 453.7 471.3 456.3 514.2 461.8C557 467.3 600 475.7 642.8 480.5C685.7 485.3 728.3 486.7 771.2 482C814 477.3 857 466.7 878.5 461.3L900 456L900 601L878.5 601C857 601 814 601 771.2 601C728.3 601 685.7 601 642.8 601C600 601 557 601 514.2 601C471.3 601 428.7 601 385.8 601C343 601 300 601 257.2 601C214.3 601 171.7 601 128.8 601C86 601 43 601 21.5 601L0 601Z" fill="#402060"></path><path d="M0 500L21.5 506.2C43 512.3 86 524.7 128.8 530.3C171.7 536 214.3 535 257.2 532.5C300 530 343 526 385.8 525.5C428.7 525 471.3 528 514.2 524.3C557 520.7 600 510.3 642.8 504.8C685.7 499.3 728.3 498.7 771.2 499.8C814 501 857 504 878.5 505.5L900 507L900 601L878.5 601C857 601 814 601 771.2 601C728.3 601 685.7 601 642.8 601C600 601 557 601 514.2 601C471.3 601 428.7 601 385.8 601C343 601 300 601 257.2 601C214.3 601 171.7 601 128.8 601C86 601 43 601 21.5 601L0 601Z" fill="#371d53"></path><path d="M0 546L21.5 544.5C43 543 86 540 128.8 542.3C171.7 544.7 214.3 552.3 257.2 550.5C300 548.7 343 537.3 385.8 536.8C428.7 536.3 471.3 546.7 514.2 553.5C557 560.3 600 563.7 642.8 558.3C685.7 553 728.3 539 771.2 532.8C814 526.7 857 528.3 878.5 529.2L900 530L900 601L878.5 601C857 601 814 601 771.2 601C728.3 601 685.7 601 642.8 601C600 601 557 601 514.2 601C471.3 601 428.7 601 385.8 601C343 601 300 601 257.2 601C214.3 601 171.7 601 128.8 601C86 601 43 601 21.5 601L0 601Z" fill="#2e1a47"></path></svg>